<?xml version="1.0" encoding="UTF-8" standalone="no"?>
<!-- Created with Inkscape (http://www.inkscape.org/) -->

<svg
   width="800"
   height="800"
   viewBox="0 0 211.66666 211.66667"
   version="1.1"
   id="svg1"
   xml:space="preserve"
   inkscape:version="1.4.2 (f4327f4, 2025-05-13)"
   sodipodi:docname="Logo screenstranslate.svg"
   xmlns:inkscape="http://www.inkscape.org/namespaces/inkscape"
   xmlns:sodipodi="http://sodipodi.sourceforge.net/DTD/sodipodi-0.dtd"
   xmlns="http://www.w3.org/2000/svg"
   xmlns:svg="http://www.w3.org/2000/svg"><sodipodi:namedview
     id="namedview1"
     pagecolor="#ffffff"
     bordercolor="#000000"
     borderopacity="0.25"
     inkscape:showpageshadow="2"
     inkscape:pageopacity="0.0"
     inkscape:pagecheckerboard="0"
     inkscape:deskcolor="#d1d1d1"
     inkscape:document-units="mm"
     inkscape:zoom="0.71891835"
     inkscape:cx="289.32354"
     inkscape:cy="411.03416"
     inkscape:window-width="1920"
     inkscape:window-height="1009"
     inkscape:window-x="-8"
     inkscape:window-y="-8"
     inkscape:window-maximized="1"
     inkscape:current-layer="layer1" /><defs
     id="defs1" /><g
     inkscape:label="Capa 1"
     inkscape:groupmode="layer"
     id="layer1"><path
       id="path3"
       style="fill:#403fa6;fill-opacity:1;stroke:#ffffff;stroke-width:0.871545;stroke-dasharray:none;stroke-opacity:1"
       d="m 113.58466,36.599465 c -39.802844,-0.003 -61.915186,0.160347 -63.875169,0.472902 -1.648772,0.262929 -4.242981,1.062854 -5.764908,1.777213 -2.689292,1.262278 -7.148486,4.766119 -7.148486,5.617183 0,0.253039 23.966237,0.422458 59.857752,0.422458 66.337421,0 62.088871,-0.190263 68.814981,3.077921 4.76003,2.312866 9.81357,7.3607 12.15495,12.141438 3.14607,6.423758 3.11003,5.849236 2.96082,48.12257 -0.1337,37.86077 -0.13405,37.89202 -1.15658,40.58133 -3.61804,9.51607 -11.1198,16.3128 -20.41589,18.49726 -2.60649,0.61241 -10.77786,0.70546 -62.606897,0.71069 -35.368163,0.003 -59.609136,0.17691 -59.609136,0.42517 0,0.67008 4.629044,4.6451 6.552178,5.62619 0.967014,0.49335 2.949682,1.18562 4.40565,1.53851 2.189373,0.53066 13.341019,0.64836 64.477785,0.68008 42.27922,0.0263 62.69572,-0.11835 64.56696,-0.45759 6.60422,-1.19728 13.77286,-6.42435 16.52457,-12.04866 2.67324,-5.46407 2.57367,-3.21018 2.5789,-57.62295 0.005,-48.687298 -0.0211,-50.19012 -0.91068,-53.070472 -1.80401,-5.840746 -6.15973,-11.022148 -11.55684,-13.746607 -5.61922,-2.836563 -3.17317,-2.739755 -69.84996,-2.744636 z" /><path
       id="path3-5"
       style="fill:#13a6d3;fill-opacity:1;stroke:#ffffff;stroke-width:0.892574;stroke-dasharray:none;stroke-opacity:1"
       d="m 92.927715,49.130003 c -66.341311,0.0054 -64.173465,-0.07586 -69.398751,2.571941 -2.906397,1.472781 -7.740861,5.915238 -9.260983,8.50913 -0.636335,1.085806 -1.587211,3.225031 -2.113454,4.754575 -0.931598,2.706182 -0.957071,3.827111 -0.94279,41.636131 l 0.01429,38.85386 1.1393,3.14018 c 2.691965,7.41625 8.572203,12.70026 16.213863,14.56904 2.267422,0.55446 13.029841,0.6482 65.765951,0.5775 l 63.054749,-0.0838 2.76289,-1.04336 c 7.37203,-2.78436 12.37841,-7.92874 14.61424,-15.01552 1.03951,-3.29677 1.04335,-3.41557 1.04335,-41.56419 V 68.257178 c -0.36374,-0.962988 -0.43961,-1.341534 -0.68359,-2.117122 -0.0218,-0.120099 -0.0488,-0.240442 -0.0774,-0.360715 l -0.3035,-0.797952 c -1.60098,-4.203706 -3.03002,-6.369217 -6.18999,-9.382758 -3.2824,-3.130306 -7.58469,-5.344879 -11.69176,-6.017468 -1.68393,-0.27577 -26.90359,-0.453606 -63.944953,-0.451106 z" /><path
       id="path1"
       style="fill:#ffffff;fill-opacity:1;stroke-width:1.74309"
       d="m 139.87709,87.812211 -0.11472,4.271057 c -0.0631,2.348918 -0.22307,4.73748 -0.35502,5.308203 l -0.23978,1.037663 h -12.67416 -12.67365 v 6.910686 6.91069 l 12.79767,0.12248 12.79819,0.12247 0.13126,5.2343 c 0.12542,5.01783 0.16618,5.20882 0.99373,4.61213 2.79164,-2.01282 19.34822,-16.3906 19.37092,-16.82172 0.015,-0.28547 -4.48651,-4.38679 -10.00353,-9.113651 z" /><path
       id="path1-3"
       style="fill:#ffffff;fill-opacity:1;stroke-width:1.74309"
       d="m 48.04238,87.821513 c -0.236554,0 -4.767636,3.795801 -15.096752,12.646257 -2.980457,2.5538 -5.408443,4.85208 -5.394503,5.10718 0.01346,0.25512 2.851335,2.85056 6.306592,5.76761 3.455258,2.91704 7.925616,6.70437 9.93376,8.41654 2.008162,1.71218 3.853761,3.11299 4.101559,3.11299 0.275337,0 0.393627,-2.01827 0.303857,-5.18832 l -0.147278,-5.18831 13.041065,-0.12247 13.041064,-0.12248 -0.127641,-6.79545 -0.12764,-6.795449 -12.798186,-0.122473 -12.798185,-0.122473 v -5.296318 c 0,-2.913035 -0.10698,-5.296834 -0.237712,-5.296834 z" /><path
       id="path23"
       style="fill:#ffffff;fill-opacity:1;stroke-width:2.57702"
       d="m 57.465784,121.75517 c -5.381078,0 -5.870266,0.1056 -5.870266,1.26714 0,0.98554 0.489188,1.26714 2.201349,1.26714 2.201349,0 2.201349,-8.1e-4 2.201349,4.64532 0,2.5554 0.231493,4.84643 0.514508,5.0908 1.78457,1.54084 2.793502,-0.085 3.00106,-4.83341 0.206975,-4.73516 0.276115,-4.90271 2.017903,-4.90271 1.314403,0 1.804361,-0.34369 1.804361,-1.26714 0,-1.16154 -0.48919,-1.26714 -5.870264,-1.26714 z m 47.695926,0 c -1.36968,0 -1.46758,0.42238 -1.46758,6.33568 0,5.91327 0.0979,6.33565 1.46758,6.33565 1.36967,0 1.46755,-0.42238 1.46755,-6.33565 0,-5.9133 -0.0979,-6.33568 -1.46755,-6.33568 z m 16.14322,0.63359 c -0.97836,0 -1.46758,0.42235 -1.46758,1.26711 0,0.69692 -0.33016,1.26714 -0.73377,1.26714 -0.40358,0 -0.73378,0.42765 -0.73378,0.95034 0,0.52271 0.3302,0.95036 0.73378,0.95036 0.40361,0 0.73377,1.36776 0.73377,3.04037 0,1.67261 0.39567,3.38323 0.87999,3.80139 0.48428,0.41815 1.48515,0.76103 2.22426,0.76103 1.83252,0 2.58365,-1.90084 1.04477,-2.64441 -1.60094,-0.77354 -1.69651,-4.95838 -0.11315,-4.95838 0.60536,0 1.10068,-0.39813 1.10068,-0.88353 0,-0.48541 -0.49532,-1.04543 -1.10068,-1.24609 -0.6054,-0.20067 -1.10066,-0.80156 -1.10066,-1.3352 0,-0.54785 -0.63887,-0.97013 -1.46757,-0.97013 z m -9.40447,1.56287 c -1.17888,0.0426 -2.24478,0.66011 -2.85057,2.0232 -0.67609,1.52132 0.85483,2.33843 2.60978,1.39211 1.10622,-0.59646 1.75989,-0.63609 2.33464,-0.13984 0.57478,0.49625 0.13672,0.80276 -1.56359,1.09638 -4.17481,0.72091 -6.04616,3.94564 -3.11284,5.36302 4.50726,2.17789 8.31812,0.58164 8.31812,-3.48459 0,-3.65485 -3.14202,-6.34418 -5.73554,-6.25028 z m -36.259217,0.18438 c -0.910989,0.0347 -1.968326,0.38584 -3.163002,1.06171 -2.175654,1.23083 -2.369012,2.89313 -0.336795,2.89313 0.807156,0 1.467562,-0.28513 1.467562,-0.63359 0,-0.34845 0.660418,-0.63355 1.467576,-0.63355 2.428739,0 1.651588,1.09616 -1.092082,1.5406 -3.597946,0.58279 -5.109607,3.15143 -2.950895,5.01532 3.470211,2.99627 8.821674,0.86794 8.553162,-3.40171 -0.248221,-3.94665 -1.617433,-5.93042 -3.945526,-5.84191 z m 11.05118,0.0359 c -2.970257,-0.0881 -5.011792,1.9874 -5.011792,5.58454 0,4.24698 0.132762,4.67007 1.467565,4.67007 1.260007,0 1.467889,-0.42561 1.477594,-3.00943 0.01309,-3.49733 0.828412,-4.93762 2.483682,-4.38919 0.881213,0.29197 1.175206,1.26536 1.175206,3.89421 0,3.08211 0.176888,3.50441 1.467564,3.50441 2.075274,0 2.234929,-8.46998 0.177711,-9.42058 -1.155168,-0.5338 -2.247436,-0.80468 -3.23753,-0.83403 z m -18.196961,0.0632 c -0.382884,0.007 -0.77116,0.1942 -1.063412,0.60262 -0.215962,0.30182 -1.225759,0.41065 -2.244345,0.24255 -1.848921,-0.30517 -1.851657,-0.2975 -1.851657,4.52034 0,4.40323 0.128461,4.82599 1.467567,4.82599 1.217854,0 1.467567,-0.42224 1.467567,-2.48229 0,-3.29983 0.602015,-4.48694 2.27874,-4.48694 0.992475,0 1.390173,-0.45222 1.390173,-1.58392 0,-1.00984 -0.713675,-1.65212 -1.444633,-1.63835 z m 61.822668,0.33781 c -4.16183,-0.12189 -7.46146,4.916 -3.63165,8.22274 2.14937,1.85582 4.55604,2.08003 6.92937,0.64472 2.67234,-1.61615 2.00527,-2.37423 -1.67106,-1.89823 -2.71498,0.35155 -3.30204,0.25152 -3.30204,-0.56179 0,-0.74994 0.79851,-0.9887 3.30204,-0.9887 4.05223,0 4.68697,-2.13539 1.31565,-4.42506 -0.97536,-0.66244 -1.98189,-0.96552 -2.94231,-0.99368 z m -32.862601,0.0618 c -1.532793,4e-4 -3.065146,0.41905 -3.774972,1.25722 -1.852775,2.18776 -0.71901,3.47691 4.510196,5.1267 1.373996,0.43349 1.356032,0.4798 -0.283777,0.72391 -0.963305,0.14343 -2.004103,-0.0912 -2.311692,-0.52097 -0.614125,-0.85795 -2.907912,-0.37271 -2.907912,0.615 0,0.33965 0.733996,1.06128 1.630949,1.60372 2.1618,1.30751 4.438157,1.24578 6.469339,-0.17456 2.51538,-1.75865 1.52581,-4.35136 -1.870299,-4.90147 -1.409274,-0.2282 -2.561072,-0.66789 -2.561072,-0.97756 0,-0.72709 1.702235,-0.72783 2.604075,-10e-4 1.442946,1.16254 3.418776,-0.13841 2.270146,-1.49482 -0.70952,-0.83782 -2.242176,-1.25639 -3.774981,-1.25601 z m 33.021691,2.18903 c 0.55772,0 1.21824,0.28509 1.46757,0.63355 0.2582,0.36077 -0.37374,0.63358 -1.46757,0.63358 -1.09387,0 -1.72579,-0.27281 -1.46758,-0.63358 0.24932,-0.34846 0.90982,-0.63355 1.46758,-0.63355 z m -16.37972,3.22846 c 0.44228,0.0307 0.60052,0.26173 0.44286,0.67068 -0.18083,0.46885 -0.91737,0.95117 -1.63667,1.07162 -0.83652,0.14008 -1.18907,-0.0884 -0.97885,-0.63356 0.18081,-0.46886 0.91736,-0.95117 1.63666,-1.07162 0.20911,-0.035 0.38858,-0.0474 0.536,-0.0371 z m -38.516447,0.0261 c 0.58063,-0.012 0.963096,0.30045 0.963096,0.8167 0,0.58772 -0.627861,0.99739 -1.529191,0.99739 -1.788265,0 -1.535631,-1.4811 0.305261,-1.78935 0.09045,-0.0144 0.177885,-0.0239 0.260834,-0.0247 z" /><rect
       style="fill:#ffffff;fill-opacity:1;stroke:none;stroke-width:0.499999;stroke-dasharray:none;stroke-opacity:1"
       id="rect34"
       width="1.472119"
       height="51.524162"
       x="19.137543"
       y="62.059433" /><rect
       style="fill:#ffffff;fill-opacity:1;stroke:none;stroke-width:0.499999;stroke-dasharray:none;stroke-opacity:1"
       id="rect34-8"
       width="1.472119"
       height="51.524162"
       x="61.323372"
       y="-70.661713"
       transform="rotate(90)" /><rect
       style="fill:#ffffff;fill-opacity:1;stroke:none;stroke-width:0.499999;stroke-dasharray:none;stroke-opacity:1"
       id="rect34-89"
       width="1.472119"
       height="51.524162"
       x="-169.03935"
       y="-148.34172"
       transform="scale(-1)" /><rect
       style="fill:#ffffff;fill-opacity:1;stroke:none;stroke-width:0.499999;stroke-dasharray:none;stroke-opacity:1"
       id="rect34-8-2"
       width="1.472119"
       height="51.524162"
       x="-149.07779"
       y="117.51519"
       transform="rotate(-90)" /><g
       id="g35"
       transform="matrix(1.0661208,0,0,1,-12.774082,0.39035448)"><path
         id="path23-7"
         style="fill:#ffffff;fill-opacity:1;stroke-width:2.94747"
         d="m 66.075561,75.338348 c -1.772882,-0.02361 -3.517138,0.469444 -4.5603,1.622141 -2.274739,2.513573 -0.789631,5.481562 3.542839,7.079586 4.263403,1.572567 5.191596,3.8155 1.579502,3.8155 -1.432779,0 -2.603983,-0.477545 -2.869608,-1.169795 -0.541094,-1.409949 -3.407325,-1.575154 -3.390524,-0.194826 0.0168,1.367361 0.90084,2.52106 2.718815,3.551965 4.73073,2.68261 11.337488,-1.660275 9.044448,-5.944838 -0.51191,-0.956512 -2.371902,-2.038495 -4.564872,-2.65788 -2.256824,-0.637421 -3.699725,-1.492806 -3.699725,-2.190295 0,-1.594427 3.06191,-1.868512 4.52527,-0.405157 1.424665,1.424663 3.663168,1.607346 3.663168,0.298548 0,-2.280807 -3.034208,-3.763767 -5.989013,-3.804828 z m 32.606004,3.902302 c -0.177848,-0.0057 -0.354727,-0.0024 -0.531581,0.0088 -1.697745,0.09933 -3.312974,0.931523 -4.135342,2.654848 -1.399306,2.932377 -0.329894,6.769623 2.251211,8.075712 2.853546,1.443961 6.365177,0.637535 7.248657,-1.664793 0.38902,-1.013928 -0.14103,-1.190483 -3.12397,-1.03574 -2.315053,0.119965 -3.715536,-0.159165 -3.937339,-0.787476 -0.246113,-0.697165 0.785479,-0.974783 3.620519,-0.974783 3.27893,0 3.96476,-0.239629 3.96476,-1.386076 0,-2.978126 -2.68935,-4.80865 -5.356915,-4.889292 z M 79.1335,79.27719 c -5.150687,0 -7.419699,5.95964 -3.689064,9.690278 2.773772,2.773778 9.097759,1.419942 9.097759,-1.948103 0,-0.972689 -2.902129,-0.926002 -3.509331,0.05627 -0.836919,1.354184 -3.383606,0.844803 -3.899257,-0.779868 -1.107721,-3.490127 1.717211,-6.159002 4.050047,-3.826138 0.469143,0.469031 1.425652,0.732267 2.126313,0.584897 2.70618,-0.569513 -0.840625,-3.777422 -4.176467,-3.777422 z m 32.04701,0.0032 c -2.39142,-0.02361 -5.0102,1.4516 -5.92047,4.441481 -0.64221,2.109387 1.34735,6.215803 3.25191,6.712507 2.21952,0.578972 2.35405,0.574081 4.3364,-0.179796 3.75019,-1.425811 3.31232,-3.338804 -0.62906,-2.747746 -2.92029,0.437907 -3.50171,0.316439 -3.50171,-0.732623 0,-0.971517 0.80007,-1.258125 3.50933,-1.258125 3.0817,0 3.50933,-0.206912 3.50933,-1.693736 0,-2.998637 -2.16432,-4.519092 -4.55573,-4.542019 z m -21.569285,0.126448 c -3.50933,0 -3.50933,-5.02e-4 -3.50933,5.39345 0,6.934901 2.841006,8.403147 3.27172,1.690704 0.190436,-2.967576 0.586585,-3.85833 1.992277,-4.475023 2.954033,-1.296009 2.070801,-2.609131 -1.754667,-2.609131 z m 32.738525,0.03363 c -4.27528,0.112591 -4.27396,0.112591 -4.27396,5.490932 0,6.903468 2.44871,7.66256 3.11941,0.967208 0.58913,-5.881287 3.40241,-5.728524 3.7439,0.202489 0.34684,6.024542 3.27476,6.152195 3.27476,0.143248 0,-6.031139 -0.78272,-6.93769 -5.86411,-6.803877 z m -24.278969,2.275597 c 0.16282,-0.0024 0.343142,0.0118 0.539197,0.04131 0.874831,0.137054 1.595232,0.600751 1.600832,1.029668 0.0127,0.949204 -1.885896,1.434558 -2.644187,0.676267 -0.933044,-0.933052 -0.635659,-1.72769 0.504158,-1.747052 z m 11.994789,0.02361 c 0.94306,-0.03978 2.08151,0.39776 2.35935,1.24139 0.20125,0.611123 -0.43073,0.974815 -1.69374,0.974815 -1.31054,0 -2.0136,-0.428359 -2.0136,-1.224614 0,-0.641699 0.61449,-0.960668 1.34799,-0.991591 z" /><text
         xml:space="preserve"
         style="font-style:normal;font-variant:normal;font-weight:normal;font-stretch:normal;font-size:20.4675px;font-family:'Comic Sans MS';-inkscape-font-specification:'Comic Sans MS';text-align:start;writing-mode:lr-tb;direction:ltr;text-anchor:start;fill:#ffffff;fill-opacity:1;stroke:none;stroke-width:3.22322;stroke-dasharray:none;stroke-opacity:1"
         x="129.90208"
         y="90.315857"
         id="text35"><tspan
           sodipodi:role="line"
           id="tspan35"
           style="stroke-width:3.22323"
           x="129.90208"
           y="90.315857">s</tspan></text></g></g></svg>
